<svg xmlns="http://www.w3.org/2000/svg" width="1040" height="420" viewBox="0 0 1040 420" role="img" aria-labelledby="title desc">
  <title id="title">2026 open-source activity snapshot for Lixin Yin</title>
  <desc id="desc">A polished contribution composition card showing 76 public GitHub contributions in 2026, including commits, pull requests, issues, and code reviews. Last updated 2026-05-22.</desc>
  <defs>
    <linearGradient id="bg" x1="0" y1="0" x2="1" y2="1">
      <stop offset="0" stop-color="#0d1117"/>
      <stop offset="0.52" stop-color="#111827"/>
      <stop offset="1" stop-color="#062f35"/>
    </linearGradient>
    <linearGradient id="panel" x1="0" y1="0" x2="1" y2="1">
      <stop offset="0" stop-color="#ffffff" stop-opacity="0.08"/>
      <stop offset="1" stop-color="#ffffff" stop-opacity="0.03"/>
    </linearGradient>
    <linearGradient id="radarFill" x1="0" y1="0" x2="1" y2="1">
      <stop offset="0" stop-color="#7ee787" stop-opacity="0.72"/>
      <stop offset="1" stop-color="#2dd4bf" stop-opacity="0.34"/>
    </linearGradient>
    <filter id="shadow" x="-20%" y="-20%" width="140%" height="140%">
      <feDropShadow dx="0" dy="18" stdDeviation="24" flood-color="#000000" flood-opacity="0.34"/>
    </filter>
    <style>
      .label{font:600 18px -apple-system,BlinkMacSystemFont,"Segoe UI",sans-serif;fill:#e6edf3}
      .muted{font:500 14px -apple-system,BlinkMacSystemFont,"Segoe UI",sans-serif;fill:#9aa7b3}
      .small{font:600 12px -apple-system,BlinkMacSystemFont,"Segoe UI",sans-serif;fill:#8b949e;letter-spacing:.08em}
      .number{font:700 46px -apple-system,BlinkMacSystemFont,"Segoe UI",sans-serif;fill:#ffffff}
      .metric{font:700 24px -apple-system,BlinkMacSystemFont,"Segoe UI",sans-serif;fill:#ffffff}
      .axis{stroke:#234b50;stroke-width:2}
      .grid{stroke:#1f3b42;stroke-width:1.2;fill:none}
    </style>
  </defs>

  <rect width="1040" height="420" rx="28" fill="url(#bg)"/>
  <path d="M0 332 C150 278 236 368 380 300 C543 223 641 239 779 154 C893 84 966 103 1040 42 L1040 420 L0 420 Z" fill="#2dd4bf" opacity="0.08"/>
  <circle cx="880" cy="72" r="156" fill="#7ee787" opacity="0.08"/>
  <circle cx="920" cy="324" r="210" fill="#2dd4bf" opacity="0.06"/>

  <g filter="url(#shadow)">
    <rect x="34" y="34" width="972" height="352" rx="24" fill="url(#panel)" stroke="#2f414d" stroke-width="1"/>
  </g>

  <g transform="translate(68 68)">
    <text class="small" x="0" y="0">OPEN-SOURCE ACTIVITY</text>
    <text class="label" x="0" y="34">2026 public GitHub contribution snapshot</text>
    <text class="muted" x="0" y="62">Medical AI, clinical agent workflows, and reproducible research tooling.</text>

    <g transform="translate(0 98)">
      <rect x="0" y="0" width="154" height="92" rx="18" fill="#0f1b24" stroke="#2f414d"/>
      <text class="number" x="20" y="52">76</text>
      <text class="muted" x="20" y="76">contributions</text>

      <rect x="174" y="0" width="154" height="92" rx="18" fill="#0f1b24" stroke="#2f414d"/>
      <text class="number" x="194" y="52">8</text>
      <text class="muted" x="194" y="76">active repos</text>

      <rect x="348" y="0" width="154" height="92" rx="18" fill="#0f1b24" stroke="#2f414d"/>
      <text class="number" x="368" y="52">15</text>
      <text class="muted" x="368" y="76">pull requests</text>
    </g>

    <g transform="translate(0 224)">
      <rect x="0" y="0" width="184" height="42" rx="21" fill="#10251f" stroke="#1f6f46"/>
      <text class="muted" x="20" y="27" fill="#b7f7c1">Clinical AI</text>
      <rect x="198" y="0" width="206" height="42" rx="21" fill="#10232a" stroke="#1d6b73"/>
      <text class="muted" x="218" y="27" fill="#b6f3ef">Agent workflows</text>
      <rect x="418" y="0" width="204" height="42" rx="21" fill="#1f1d12" stroke="#8a6d1d"/>
      <text class="muted" x="438" y="27" fill="#f7df8d">Kaggle life science</text>
    </g>
  </g>

  <g transform="translate(712 210)">
    <circle class="grid" cx="0" cy="0" r="128"/>
    <circle class="grid" cx="0" cy="0" r="88"/>
    <circle class="grid" cx="0" cy="0" r="48"/>
    <line class="axis" x1="0" y1="-144" x2="0" y2="144"/>
    <line class="axis" x1="-144" y1="0" x2="144" y2="0"/>

    <polygon points="-89,0 0,52 3,0 0,-0" fill="url(#radarFill)" stroke="#7ee787" stroke-width="3" stroke-linejoin="round"/>
    <circle cx="-89" cy="0" r="6" fill="#0d1117" stroke="#7ee787" stroke-width="4"/>
    <circle cx="0" cy="52" r="6" fill="#0d1117" stroke="#7ee787" stroke-width="4"/>
    <circle cx="3" cy="0" r="6" fill="#0d1117" stroke="#7ee787" stroke-width="4"/>
    <circle cx="0" cy="-0" r="6" fill="#0d1117" stroke="#7ee787" stroke-width="4"/>

    <text class="metric" x="-198" y="-7" text-anchor="middle">62%</text>
    <text class="muted" x="-198" y="17" text-anchor="middle">Commits</text>
    <text class="metric" x="0" y="179" text-anchor="middle">36%</text>
    <text class="muted" x="0" y="203" text-anchor="middle">Pull requests</text>
    <text class="metric" x="191" y="-7" text-anchor="middle">2%</text>
    <text class="muted" x="191" y="17" text-anchor="middle">Issues</text>
    <text class="metric" x="0" y="-177" text-anchor="middle">0%</text>
    <text class="muted" x="0" y="-153" text-anchor="middle">Code review</text>
  </g>
</svg>
