<svg xmlns="http://www.w3.org/2000/svg" width="1040" height="420" viewBox="0 0 1040 420" role="img" aria-labelledby="title desc">
  <title id="title">2026 open-source activity snapshot for Lixin Yin</title>
  <desc id="desc">A clean GitHub-style contribution overview showing 79 public GitHub contributions in 2026, including commits, pull requests, issues, and code reviews. Last updated 2026-05-22.</desc>
  <defs>
    <linearGradient id="surface" x1="0" y1="0" x2="1" y2="1">
      <stop offset="0" stop-color="#fffdf8"/>
      <stop offset="0.58" stop-color="#ffffff"/>
      <stop offset="1" stop-color="#eef7ff"/>
    </linearGradient>
    <radialGradient id="soft-aura" cx="70%" cy="31%" r="58%">
      <stop offset="0" stop-color="#fef3c7" stop-opacity="0.78"/>
      <stop offset="0.48" stop-color="#dbeafe" stop-opacity="0.32"/>
      <stop offset="1" stop-color="#ffffff" stop-opacity="0"/>
    </radialGradient>
    <style>
      .title{font:700 25px -apple-system,BlinkMacSystemFont,"Segoe UI",sans-serif;fill:#24292f}
      .subtle{font:500 13px -apple-system,BlinkMacSystemFont,"Segoe UI",sans-serif;fill:#57606a}
      .section{font:700 17px -apple-system,BlinkMacSystemFont,"Segoe UI",sans-serif;fill:#24292f}
      .chip{font:650 13px -apple-system,BlinkMacSystemFont,"Segoe UI",sans-serif;fill:#24292f}
      .value{font:760 38px -apple-system,BlinkMacSystemFont,"Segoe UI",sans-serif;fill:#24292f}
      .value-small{font:760 21px -apple-system,BlinkMacSystemFont,"Segoe UI",sans-serif;fill:#24292f}
      .label{font:560 13px -apple-system,BlinkMacSystemFont,"Segoe UI",sans-serif;fill:#57606a}
      .axis{stroke:#d0d7de;stroke-width:1.25;stroke-linecap:round}
      .grid{stroke:#d8dee4;stroke-width:1;fill:none}
      .warm{stroke:#f59e0b;stroke-width:1.6;stroke-linecap:round;fill:none;opacity:.28}
      .cool{stroke:#54aeef;stroke-width:1.6;stroke-linecap:round;fill:none;opacity:.25}
    </style>
  </defs>

  <rect x="0.5" y="0.5" width="1039" height="419" rx="22" fill="url(#surface)" stroke="#d0d7de"/>
  <rect x="30" y="30" width="980" height="360" rx="16" fill="#ffffff" stroke="#d8dee4"/>
  <circle cx="742" cy="130" r="190" fill="url(#soft-aura)"/>
  <path class="warm" d="M642 70 C710 35 810 40 905 92"/>
  <path class="cool" d="M618 343 C700 304 842 304 958 342"/>

  <g transform="translate(64 64)">
    <text class="title" x="0" y="0">79 contributions in 2026</text>
    <text class="subtle" x="0" y="29">Medical AI, clinical agent workflows, Kaggle life science, and reproducible research tooling.</text>

    <g transform="translate(0 68)">
      <text class="subtle" x="0" y="0">Jan</text><text class="subtle" x="72" y="0">Feb</text><text class="subtle" x="144" y="0">Mar</text><text class="subtle" x="216" y="0">Apr</text><text class="subtle" x="288" y="0">May</text><text class="subtle" x="360" y="0">Jun</text><text class="subtle" x="432" y="0">Jul</text>
      <rect x="0" y="18" width="12" height="12" rx="3" fill="#216e39"/><rect x="0" y="35" width="12" height="12" rx="3" fill="#ebedf0"/><rect x="0" y="52" width="12" height="12" rx="3" fill="#9be9a8"/><rect x="0" y="69" width="12" height="12" rx="3" fill="#40c463"/><rect x="0" y="86" width="12" height="12" rx="3" fill="#30a14e"/><rect x="18" y="18" width="12" height="12" rx="3" fill="#ebedf0"/><rect x="18" y="35" width="12" height="12" rx="3" fill="#9be9a8"/><rect x="18" y="52" width="12" height="12" rx="3" fill="#40c463"/><rect x="18" y="69" width="12" height="12" rx="3" fill="#30a14e"/><rect x="18" y="86" width="12" height="12" rx="3" fill="#216e39"/><rect x="36" y="18" width="12" height="12" rx="3" fill="#9be9a8"/><rect x="36" y="35" width="12" height="12" rx="3" fill="#40c463"/><rect x="36" y="52" width="12" height="12" rx="3" fill="#30a14e"/><rect x="36" y="69" width="12" height="12" rx="3" fill="#216e39"/><rect x="36" y="86" width="12" height="12" rx="3" fill="#ebedf0"/><rect x="54" y="18" width="12" height="12" rx="3" fill="#40c463"/><rect x="54" y="35" width="12" height="12" rx="3" fill="#30a14e"/><rect x="54" y="52" width="12" height="12" rx="3" fill="#216e39"/><rect x="54" y="69" width="12" height="12" rx="3" fill="#ebedf0"/><rect x="54" y="86" width="12" height="12" rx="3" fill="#9be9a8"/><rect x="72" y="18" width="12" height="12" rx="3" fill="#30a14e"/><rect x="72" y="35" width="12" height="12" rx="3" fill="#216e39"/><rect x="72" y="52" width="12" height="12" rx="3" fill="#ebedf0"/><rect x="72" y="69" width="12" height="12" rx="3" fill="#9be9a8"/><rect x="72" y="86" width="12" height="12" rx="3" fill="#40c463"/><rect x="90" y="18" width="12" height="12" rx="3" fill="#216e39"/><rect x="90" y="35" width="12" height="12" rx="3" fill="#ebedf0"/><rect x="90" y="52" width="12" height="12" rx="3" fill="#9be9a8"/><rect x="90" y="69" width="12" height="12" rx="3" fill="#40c463"/><rect x="90" y="86" width="12" height="12" rx="3" fill="#30a14e"/><rect x="108" y="18" width="12" height="12" rx="3" fill="#ebedf0"/><rect x="108" y="35" width="12" height="12" rx="3" fill="#9be9a8"/><rect x="108" y="52" width="12" height="12" rx="3" fill="#40c463"/><rect x="108" y="69" width="12" height="12" rx="3" fill="#30a14e"/><rect x="108" y="86" width="12" height="12" rx="3" fill="#216e39"/><rect x="126" y="18" width="12" height="12" rx="3" fill="#9be9a8"/><rect x="126" y="35" width="12" height="12" rx="3" fill="#40c463"/><rect x="126" y="52" width="12" height="12" rx="3" fill="#30a14e"/><rect x="126" y="69" width="12" height="12" rx="3" fill="#216e39"/><rect x="126" y="86" width="12" height="12" rx="3" fill="#ebedf0"/><rect x="144" y="18" width="12" height="12" rx="3" fill="#40c463"/><rect x="144" y="35" width="12" height="12" rx="3" fill="#30a14e"/><rect x="144" y="52" width="12" height="12" rx="3" fill="#216e39"/><rect x="144" y="69" width="12" height="12" rx="3" fill="#ebedf0"/><rect x="144" y="86" width="12" height="12" rx="3" fill="#9be9a8"/><rect x="162" y="18" width="12" height="12" rx="3" fill="#30a14e"/><rect x="162" y="35" width="12" height="12" rx="3" fill="#216e39"/><rect x="162" y="52" width="12" height="12" rx="3" fill="#ebedf0"/><rect x="162" y="69" width="12" height="12" rx="3" fill="#9be9a8"/><rect x="162" y="86" width="12" height="12" rx="3" fill="#40c463"/><rect x="180" y="18" width="12" height="12" rx="3" fill="#216e39"/><rect x="180" y="35" width="12" height="12" rx="3" fill="#ebedf0"/><rect x="180" y="52" width="12" height="12" rx="3" fill="#9be9a8"/><rect x="180" y="69" width="12" height="12" rx="3" fill="#40c463"/><rect x="180" y="86" width="12" height="12" rx="3" fill="#30a14e"/><rect x="198" y="18" width="12" height="12" rx="3" fill="#ebedf0"/><rect x="198" y="35" width="12" height="12" rx="3" fill="#9be9a8"/><rect x="198" y="52" width="12" height="12" rx="3" fill="#40c463"/><rect x="198" y="69" width="12" height="12" rx="3" fill="#30a14e"/><rect x="198" y="86" width="12" height="12" rx="3" fill="#216e39"/><rect x="216" y="18" width="12" height="12" rx="3" fill="#9be9a8"/><rect x="216" y="35" width="12" height="12" rx="3" fill="#40c463"/><rect x="216" y="52" width="12" height="12" rx="3" fill="#30a14e"/><rect x="216" y="69" width="12" height="12" rx="3" fill="#216e39"/><rect x="216" y="86" width="12" height="12" rx="3" fill="#ebedf0"/><rect x="234" y="18" width="12" height="12" rx="3" fill="#40c463"/><rect x="234" y="35" width="12" height="12" rx="3" fill="#30a14e"/><rect x="234" y="52" width="12" height="12" rx="3" fill="#216e39"/><rect x="234" y="69" width="12" height="12" rx="3" fill="#ebedf0"/><rect x="234" y="86" width="12" height="12" rx="3" fill="#9be9a8"/><rect x="252" y="18" width="12" height="12" rx="3" fill="#30a14e"/><rect x="252" y="35" width="12" height="12" rx="3" fill="#216e39"/><rect x="252" y="52" width="12" height="12" rx="3" fill="#ebedf0"/><rect x="252" y="69" width="12" height="12" rx="3" fill="#9be9a8"/><rect x="252" y="86" width="12" height="12" rx="3" fill="#40c463"/><rect x="270" y="18" width="12" height="12" rx="3" fill="#216e39"/><rect x="270" y="35" width="12" height="12" rx="3" fill="#ebedf0"/><rect x="270" y="52" width="12" height="12" rx="3" fill="#9be9a8"/><rect x="270" y="69" width="12" height="12" rx="3" fill="#40c463"/><rect x="270" y="86" width="12" height="12" rx="3" fill="#30a14e"/><rect x="288" y="18" width="12" height="12" rx="3" fill="#ebedf0"/><rect x="288" y="35" width="12" height="12" rx="3" fill="#9be9a8"/><rect x="288" y="52" width="12" height="12" rx="3" fill="#40c463"/><rect x="288" y="69" width="12" height="12" rx="3" fill="#30a14e"/><rect x="288" y="86" width="12" height="12" rx="3" fill="#216e39"/><rect x="306" y="18" width="12" height="12" rx="3" fill="#9be9a8"/><rect x="306" y="35" width="12" height="12" rx="3" fill="#40c463"/><rect x="306" y="52" width="12" height="12" rx="3" fill="#30a14e"/><rect x="306" y="69" width="12" height="12" rx="3" fill="#216e39"/><rect x="306" y="86" width="12" height="12" rx="3" fill="#ebedf0"/><rect x="324" y="18" width="12" height="12" rx="3" fill="#40c463"/><rect x="324" y="35" width="12" height="12" rx="3" fill="#30a14e"/><rect x="324" y="52" width="12" height="12" rx="3" fill="#216e39"/><rect x="324" y="69" width="12" height="12" rx="3" fill="#ebedf0"/><rect x="324" y="86" width="12" height="12" rx="3" fill="#9be9a8"/><rect x="342" y="18" width="12" height="12" rx="3" fill="#30a14e"/><rect x="342" y="35" width="12" height="12" rx="3" fill="#216e39"/><rect x="342" y="52" width="12" height="12" rx="3" fill="#ebedf0"/><rect x="342" y="69" width="12" height="12" rx="3" fill="#9be9a8"/><rect x="342" y="86" width="12" height="12" rx="3" fill="#40c463"/><rect x="360" y="18" width="12" height="12" rx="3" fill="#216e39"/><rect x="360" y="35" width="12" height="12" rx="3" fill="#ebedf0"/><rect x="360" y="52" width="12" height="12" rx="3" fill="#9be9a8"/><rect x="360" y="69" width="12" height="12" rx="3" fill="#40c463"/><rect x="360" y="86" width="12" height="12" rx="3" fill="#30a14e"/><rect x="378" y="18" width="12" height="12" rx="3" fill="#ebedf0"/><rect x="378" y="35" width="12" height="12" rx="3" fill="#9be9a8"/><rect x="378" y="52" width="12" height="12" rx="3" fill="#40c463"/><rect x="378" y="69" width="12" height="12" rx="3" fill="#30a14e"/><rect x="378" y="86" width="12" height="12" rx="3" fill="#216e39"/><rect x="396" y="18" width="12" height="12" rx="3" fill="#9be9a8"/><rect x="396" y="35" width="12" height="12" rx="3" fill="#40c463"/><rect x="396" y="52" width="12" height="12" rx="3" fill="#30a14e"/><rect x="396" y="69" width="12" height="12" rx="3" fill="#216e39"/><rect x="396" y="86" width="12" height="12" rx="3" fill="#ebedf0"/><rect x="414" y="18" width="12" height="12" rx="3" fill="#40c463"/><rect x="414" y="35" width="12" height="12" rx="3" fill="#30a14e"/><rect x="414" y="52" width="12" height="12" rx="3" fill="#216e39"/><rect x="414" y="69" width="12" height="12" rx="3" fill="#ebedf0"/><rect x="414" y="86" width="12" height="12" rx="3" fill="#9be9a8"/><rect x="432" y="18" width="12" height="12" rx="3" fill="#30a14e"/><rect x="432" y="35" width="12" height="12" rx="3" fill="#216e39"/><rect x="432" y="52" width="12" height="12" rx="3" fill="#ebedf0"/><rect x="432" y="69" width="12" height="12" rx="3" fill="#9be9a8"/><rect x="432" y="86" width="12" height="12" rx="3" fill="#40c463"/><rect x="450" y="18" width="12" height="12" rx="3" fill="#216e39"/><rect x="450" y="35" width="12" height="12" rx="3" fill="#ebedf0"/><rect x="450" y="52" width="12" height="12" rx="3" fill="#9be9a8"/><rect x="450" y="69" width="12" height="12" rx="3" fill="#40c463"/><rect x="450" y="86" width="12" height="12" rx="3" fill="#30a14e"/><rect x="468" y="18" width="12" height="12" rx="3" fill="#ebedf0"/><rect x="468" y="35" width="12" height="12" rx="3" fill="#9be9a8"/><rect x="468" y="52" width="12" height="12" rx="3" fill="#40c463"/><rect x="468" y="69" width="12" height="12" rx="3" fill="#30a14e"/><rect x="468" y="86" width="12" height="12" rx="3" fill="#216e39"/><rect x="486" y="18" width="12" height="12" rx="3" fill="#9be9a8"/><rect x="486" y="35" width="12" height="12" rx="3" fill="#40c463"/><rect x="486" y="52" width="12" height="12" rx="3" fill="#30a14e"/><rect x="486" y="69" width="12" height="12" rx="3" fill="#216e39"/><rect x="486" y="86" width="12" height="12" rx="3" fill="#ebedf0"/><rect x="504" y="18" width="12" height="12" rx="3" fill="#40c463"/><rect x="504" y="35" width="12" height="12" rx="3" fill="#30a14e"/><rect x="504" y="52" width="12" height="12" rx="3" fill="#216e39"/><rect x="504" y="69" width="12" height="12" rx="3" fill="#ebedf0"/><rect x="504" y="86" width="12" height="12" rx="3" fill="#9be9a8"/><rect x="522" y="18" width="12" height="12" rx="3" fill="#30a14e"/><rect x="522" y="35" width="12" height="12" rx="3" fill="#216e39"/><rect x="522" y="52" width="12" height="12" rx="3" fill="#ebedf0"/><rect x="522" y="69" width="12" height="12" rx="3" fill="#9be9a8"/><rect x="522" y="86" width="12" height="12" rx="3" fill="#40c463"/><rect x="540" y="18" width="12" height="12" rx="3" fill="#216e39"/><rect x="540" y="35" width="12" height="12" rx="3" fill="#ebedf0"/><rect x="540" y="52" width="12" height="12" rx="3" fill="#9be9a8"/><rect x="540" y="69" width="12" height="12" rx="3" fill="#40c463"/><rect x="540" y="86" width="12" height="12" rx="3" fill="#30a14e"/>
      <text class="subtle" x="0" y="128">Less</text>
      <rect x="42" y="118" width="12" height="12" rx="3" fill="#ebedf0"/>
      <rect x="62" y="118" width="12" height="12" rx="3" fill="#9be9a8"/>
      <rect x="82" y="118" width="12" height="12" rx="3" fill="#40c463"/>
      <rect x="102" y="118" width="12" height="12" rx="3" fill="#30a14e"/>
      <rect x="122" y="118" width="12" height="12" rx="3" fill="#216e39"/>
      <text class="subtle" x="144" y="128">More</text>
    </g>

    <line x1="0" y1="226" x2="902" y2="226" stroke="#d8dee4"/>

    <g transform="translate(0 270)">
      <rect x="0" y="-24" width="126" height="38" rx="9" fill="#ffffff" stroke="#d0d7de"/>
      <text class="chip" x="18" y="0">@2023Anita</text>
      <rect x="146" y="-24" width="150" height="38" rx="9" fill="#ffffff" stroke="#d0d7de"/>
      <text class="chip" x="164" y="0">Medical AI</text>
      <rect x="316" y="-24" width="178" height="38" rx="9" fill="#ffffff" stroke="#d0d7de"/>
      <text class="chip" x="334" y="0">Agent workflows</text>
      <rect x="514" y="-24" width="190" height="38" rx="9" fill="#ffffff" stroke="#d0d7de"/>
      <text class="chip" x="532" y="0">Kaggle life science</text>
    </g>
  </g>

  <g transform="translate(72 330)">
    <text class="section" x="0" y="0">Activity overview</text>
    <text class="label" x="0" y="34">Contributed across 9 public repositories</text>
    <text class="value-small" x="0" y="78">26</text><text class="label" x="36" y="78">commits</text>
    <text class="value-small" x="138" y="78">16</text><text class="label" x="174" y="78">pull requests</text>
    <text class="value-small" x="318" y="78">1</text><text class="label" x="342" y="78">issues</text>
  </g>

  <g transform="translate(824 218)">
    <circle class="grid" cx="0" cy="0" r="108"/>
    <circle class="grid" cx="0" cy="0" r="72"/>
    <circle class="grid" cx="0" cy="0" r="36"/>
    <line class="axis" x1="0" y1="-122" x2="0" y2="122"/>
    <line class="axis" x1="-122" y1="0" x2="122" y2="0"/>

    <polygon points="-64,0 0,39 2,0 0,-2" fill="#facc15" fill-opacity="0.28" stroke="#ea580c" stroke-width="2.6" stroke-linejoin="round"/>
    <circle cx="-64" cy="0" r="5" fill="#ffffff" stroke="#ea580c" stroke-width="3"/>
    <circle cx="0" cy="39" r="5" fill="#ffffff" stroke="#ea580c" stroke-width="3"/>
    <circle cx="2" cy="0" r="5" fill="#ffffff" stroke="#ea580c" stroke-width="3"/>
    <circle cx="0" cy="-2" r="5" fill="#ffffff" stroke="#ea580c" stroke-width="3"/>

    <text class="value-small" x="-164" y="-6" text-anchor="middle">59%</text>
    <text class="muted" x="-164" y="17" text-anchor="middle">Commits</text>
    <text class="value-small" x="0" y="151" text-anchor="middle">36%</text>
    <text class="muted" x="0" y="174" text-anchor="middle">Pull requests</text>
    <text class="value-small" x="154" y="-6" text-anchor="middle">2%</text>
    <text class="muted" x="154" y="17" text-anchor="middle">Issues</text>
    <text class="value-small" x="0" y="-146" text-anchor="middle">2%</text>
    <text class="muted" x="0" y="-123" text-anchor="middle">Code review</text>
  </g>
</svg>
